PathFileType	4	(X/Y/Z)	D:\Documents\paper\Opensim\Pipline\Result\suihongtao\30DJ0001\original_data\suihongtao_30DJ0001_static.trc	
DataRate	CameraRate	NumFrames	NumMarkers	Units	OrigDataRate	OrigDataStartFrame	OrigNumFrames	
200	200	7	27	mm	200	415	1108	
Frame#	Time	Top.Head			L.Acromium			R.Acromium			Sternum			L.ASIS			R.ASIS			L.PSIS			R.PSIS			V.Sacral			L.Thigh.Front			L.Knee.Lat			L.Knee.Med			L.Shank.Front			L.Ankle.Lat			L.Ankle.Med			L.Heel			L.Toe.Lat			L.Toe.Tip			R.Thigh.Front			R.Knee.Lat			R.Knee.Med			R.Shank.Front			R.Ankle.Lat			R.Ankle.Med			R.Heel			R.Toe.Lat			R.Toe.Tip
		X1	Y1	Z1	X2	Y2	Z2	X3	Y3	Z3	X4	Y4	Z4	X5	Y5	Z5	X6	Y6	Z6	X7	Y7	Z7	X8	Y8	Z8	X9	Y9	Z9	X10	Y10	Z10	X11	Y11	Z11	X12	Y12	Z12	X13	Y13	Z13	X14	Y14	Z14	X15	Y15	Z15	X16	Y16	Z16	X17	Y17	Z17	X18	Y18	Z18	X19	Y19	Z19	X20	Y20	Z20	X21	Y21	Z21	X22	Y22	Z22	X23	Y23	Z23	X24	Y24	Z24	X25	Y25	Z25	X26	Y26	Z26	X27	Y27	Z27
416	2.075000	345.933643	1628.337352	-774.399082	202.436502	1314.179369	-647.143197	487.211242	1311.596506	-861.130974	294.271455	1304.810554	-831.470069	178.939399	892.821912	-762.120751	355.920327	893.858862	-915.479967	359.107140	911.358677	-663.048832	435.835000	906.586213	-721.839499	397.471015	908.972305	-692.443925	209.587271	536.505810	-757.886528	212.617626	447.722536	-637.446648	323.023093	424.243876	-700.820009	236.866551	379.256844	-695.690801	224.571664	86.575725	-617.150405	276.490283	102.703947	-684.232439	292.068835	48.027450	-599.028895	143.003271	32.727748	-694.639285	165.445713	55.365464	-758.141568	358.447368	528.215164	-856.128112	485.718553	441.786264	-834.092847	395.516899	423.408682	-749.268783	433.922720	375.593449	-827.556512	505.125577	89.783402	-811.261535	430.960808	99.861994	-774.170537	501.060895	44.779561	-728.481347	473.599385	34.759452	-903.151758	388.607784	49.501063	-902.605428	
417	2.080000	345.936176	1628.343764	-774.373885	202.453615	1314.182565	-647.125016	487.223512	1311.600224	-861.119742	294.284834	1304.803678	-831.446030	178.959706	892.829610	-762.099183	355.942575	893.868006	-915.452071	359.126166	911.360146	-663.024525	435.853400	906.588871	-721.815848	397.489706	908.974313	-692.419942	209.597301	536.518900	-757.873264	212.629801	447.723264	-637.432410	323.030455	424.241180	-700.800464	236.876817	379.258220	-695.683540	224.574770	86.577746	-617.149931	276.493273	102.708205	-684.233096	292.067054	48.031835	-599.028115	143.002905	32.728243	-694.640081	165.444496	55.372650	-758.137575	358.455773	528.222985	-856.116772	485.725407	441.790158	-834.086827	395.521570	423.416109	-749.266809	433.928332	375.594255	-827.552380	505.129086	89.788590	-811.261446	430.963951	99.864152	-774.166771	501.060506	44.779590	-728.480757	473.596922	34.761103	-903.153008	388.602739	49.503481	-902.605675	
418	2.085000	345.937422	1628.350647	-774.348658	202.472085	1314.186834	-647.105710	487.236376	1311.602948	-861.105163	294.298515	1304.795490	-831.421938	178.979434	892.835051	-762.075338	355.965334	893.876196	-915.422097	359.143995	911.360424	-662.997946	435.873058	906.592304	-721.790168	397.508429	908.976177	-692.393808	209.608622	536.524720	-757.855488	212.643636	447.724000	-637.416314	323.038158	424.246349	-700.785682	236.888865	379.260185	-695.673928	224.575292	86.580346	-617.149240	276.497454	102.711138	-684.235165	292.066488	48.032310	-599.025660	143.003512	32.727282	-694.638799	165.443456	55.378913	-758.133311	358.464580	528.230113	-856.106424	485.731610	441.791256	-834.079367	395.521929	423.425455	-749.266984	433.932756	375.591553	-827.546193	505.131507	89.792005	-811.259287	430.966051	99.863544	-774.162503	501.059682	44.780275	-728.479687	473.595533	34.760632	-903.153919	388.599650	49.504910	-902.605492	
419	2.090000	345.936073	1628.358123	-774.325041	202.491780	1314.190430	-647.085673	487.248773	1311.604432	-861.087593	294.311495	1304.786704	-831.399336	178.997460	892.837929	-762.049075	355.986718	893.883806	-915.392590	359.162580	911.361162	-662.970658	435.894687	906.596040	-721.761775	397.528517	908.978466	-692.365973	209.622485	536.523067	-757.834561	212.658962	447.723067	-637.399958	323.047331	424.257892	-700.775731	236.900337	379.261712	-695.662415	224.573791	86.581483	-617.148249	276.501346	102.711698	-684.236781	292.066642	48.028176	-599.022314	143.003612	32.725539	-694.634910	165.443137	55.383092	-758.130742	358.473522	528.235448	-856.095302	485.737066	441.789617	-834.069558	395.525719	423.429655	-749.263552	433.935878	375.586032	-827.538038	505.133080	89.794843	-811.256575	430.966967	99.860320	-774.157192	501.058874	44.782024	-728.479206	473.594951	34.758771	-903.154884	388.598239	49.506991	-902.605419	
420	2.095000	345.931541	1628.366747	-774.303392	202.513253	1314.193282	-647.065935	487.260763	1311.604561	-861.068593	294.323804	1304.777576	-831.378114	179.013872	892.839077	-762.021948	356.005426	893.891066	-915.365272	359.182712	911.363375	-662.944671	435.917919	906.600782	-721.731434	397.550201	908.981993	-692.337835	209.637201	536.516862	-757.812269	212.674867	447.719460	-637.385151	323.057117	424.269228	-700.767658	236.909636	379.262986	-695.650028	224.571731	86.580779	-617.146276	276.503658	102.711083	-684.236537	292.067181	48.021969	-599.019442	143.002199	32.723762	-694.629830	165.442940	55.385511	-758.130489	358.482575	528.239041	-856.082258	485.743268	441.786879	-834.057764	395.536046	423.425663	-749.255214	433.938066	375.580469	-827.529268	505.134380	89.798748	-811.254330	430.967196	99.857302	-774.150701	501.058819	44.785339	-728.479741	473.595122	34.757758	-903.154824	388.597778	49.510113	-902.605678	
421	2.100000	345.924178	1628.376885	-774.282593	202.536453	1314.197322	-647.047393	487.273221	1311.602363	-861.049608	294.336208	1304.768069	-831.357295	179.030255	892.839934	-761.996247	356.022862	893.897826	-915.339484	359.203686	911.365784	-662.920777	435.941873	906.607086	-721.701362	397.572702	908.986361	-692.310900	209.649034	536.511167	-757.790457	212.690190	447.714411	-637.372735	323.066064	424.273303	-700.758211	236.916593	379.264908	-695.637840	224.570023	86.579055	-617.143036	276.504378	102.711541	-684.234422	292.068221	48.017059	-599.018223	142.999472	32.723283	-694.625811	165.441635	55.387554	-758.132079	358.492414	528.241777	-856.067945	485.751802	441.784355	-834.045510	395.548807	423.417497	-749.245726	433.940307	375.577547	-827.521892	505.136286	89.803326	-811.251860	430.967773	99.857965	-774.144655	501.060502	44.790918	-728.479957	473.595927	34.759924	-903.152283	388.598365	49.513650	-902.605532	
422	2.105000	345.915079	1628.388020	-774.261106	202.560149	1314.204290	-647.030301	487.287026	1311.596057	-861.030969	294.349324	1304.758825	-831.336624	179.048292	892.842040	-761.973089	356.042241	893.903514	-915.313815	359.224622	911.367157	-662.898217	435.965721	906.612993	-721.673847	397.595153	908.989986	-692.285935	209.655730	536.510171	-757.770508	212.704128	447.710486	-637.362154	323.074470	424.268978	-700.745957	236.922439	379.267885	-695.626905	224.568441	86.577619	-617.139304	276.504620	102.714410	-684.231710	292.069839	48.014931	-599.018685	142.996530	32.726012	-694.624347	165.438920	55.390372	-758.134860	358.503421	528.244355	-856.054119	485.762196	441.781952	-834.034806	395.559587	423.410544	-749.237640	433.944148	375.578027	-827.516880	505.139907	89.806634	-811.248023	430.969331	99.863873	-774.141120	501.064431	44.798284	-728.478079	473.596640	34.765606	-903.147244	388.600199	49.517109	-902.604136	
